<svg data-v-73fdaaa2="" version="1.0" xmlns="http://www.w3.org/2000/svg" xmlns:xlink="http://www.w3.org/1999/xlink"
    viewBox="50 100 240.000000 50.000000" preserveAspectRatio="xMidYMid meet" color-interpolation-filters="sRGB" class="el-tooltip"
    style="margin: auto;">
    <g data-v-73fdaaa2="" fill="#1cb0f6" class="icon-svg-group iconsvg" transform="translate(58.01280975341797,100.80350303649902)">
        <g class="iconsvg-imagesvg" transform="translate(0,0)">
            <rect fill="#1cb0f6" fill-opacity="0" stroke-width="2" x="0" y="0" width="51" height="48.392995529063" /><svg
                x="0" y="0" width="51" height="48.392995529063" class="imagesvg-svg"><svg xmlns="http://www.w3.org/2000/svg"
                    viewBox="0 0 67.1 63.67">
                    <g>
                        <g>
                            <path fill="#009bff" d="M0 63.67h44.42L67.1 31.83 44.42 0 0 63.67z" />
                            <path fill="#1cb0f6" d="M0 0h44.42L67.1 31.83 44.42 63.67 0 0z" />
                        </g>
                    </g>
                </svg></svg>
            <!---->
        </g>
        <g transform="translate(58,13.99649715423584)">
            <g class="tp-name iconsvg-namesvg">
                <g>
                    <path transform="translate(-2.515625,20.5078125)" d="M2.52-0.11L18.43-0.11L18.43-1.91L6.73-1.91L6.73-18.70L18.43-18.70L18.43-20.51L2.52-20.51L2.52-0.11ZM23.41-0.11L37.35-0.11L37.35-12.20L37.35-12.20Q37.38-13.89 36.82-14.45L36.82-14.45L36.82-14.45Q36.26-15.01 34.56-14.98L34.56-14.98L23.41-14.98L23.41-0.11ZM33.20-1.91L27.56-1.91L27.56-13.18L32.10-13.18L32.10-13.18Q33.30-13.29 33.20-12.09L33.20-12.09L33.20-1.91ZM42.33-0.11L56.27-0.11L56.27-17.88L52.12-17.88L52.12-14.38L42.33-14.38L42.33-0.11ZM46.54-12.58L52.12-12.58L52.12-1.91L46.54-1.91L46.54-12.58ZM61.25-0.11L62.34-0.11L75.69-0.11L75.69-1.91L65.46-1.91L65.46-6.23L75.69-6.23L75.69-12.20L75.69-12.20Q75.71-13.89 75.15-14.45L75.15-14.45L75.15-14.45Q74.59-15.01 72.90-14.98L72.90-14.98L61.25-14.98L61.25-0.11ZM71.53-8.04L65.46-8.04L65.46-13.18L70.44-13.18L70.44-13.18Q71.64-13.29 71.53-12.09L71.53-12.09L71.53-8.04ZM80.66-0.11L97.40-0.11L97.40-8.64L97.40-8.64Q97.43-10.34 96.87-10.90L96.87-10.90L96.87-10.90Q96.30-11.46 94.61-11.43L94.61-11.43L87.66-11.43L87.66-9.63L92.09-9.63L92.09-9.63Q93.30-9.73 93.19-8.53L93.19-8.53L93.19-1.91L84.88-1.91L84.88-18.70L97.18-18.70L97.18-20.51L80.66-20.51L80.66-0.11ZM102.43-0.11L116.48-0.11L116.48-14.98L112.27-14.98L112.27-1.91L106.64-1.91L106.64-14.98L102.43-14.98L102.43-0.11ZM120.97-0.11L122.06-0.11L134.86-0.11L134.86-12.20L134.86-12.20Q134.89-13.89 134.33-14.45L134.33-14.45L134.33-14.45Q133.77-15.01 132.07-14.98L132.07-14.98L122.88-14.98L122.88-13.18L129.55-13.18L129.55-13.18Q130.76-13.29 130.65-12.09L130.65-12.09L130.65-9.46L120.97-9.46L120.97-0.11ZM125.13-1.91L125.13-7.66L130.65-7.66L130.65-1.91L125.13-1.91ZM143.50-13.18L149.57-13.18L149.57-14.98L139.29-14.98L139.29-0.11L143.50-0.11L143.50-13.18ZM154.55-0.11L168.49-0.11L168.49-17.88L164.34-17.88L164.34-14.38L154.55-14.38L154.55-0.11ZM158.76-12.58L164.34-12.58L164.34-1.91L158.76-1.91L158.76-12.58Z" />
                </g>
                <!---->
                <!---->
                <!---->
                <!---->
                <!---->
                <!---->
                <!---->
            </g>
            <!---->
        </g>
    </g>
</svg>